<svg width="24" height="24" viewBox="0 0 24 24" fill="none" xmlns="http://www.w3.org/2000/svg">
<g id="fluent:people-community-48-regular">
<path id="Vector" d="M12 3.75C11.4696 3.75 10.9609 3.96071 10.5858 4.33579C10.2107 4.71086 10 5.21957 10 5.75C10 6.28043 10.2107 6.78914 10.5858 7.16421C10.9609 7.53929 11.4696 7.75 12 7.75C12.5304 7.75 13.0391 7.53929 13.4142 7.16421C13.7893 6.78914 14 6.28043 14 5.75C14 5.21957 13.7893 4.71086 13.4142 4.33579C13.0391 3.96071 12.5304 3.75 12 3.75ZM8.75 5.75C8.75 4.88805 9.09241 4.0614 9.7019 3.4519C10.3114 2.84241 11.138 2.5 12 2.5C12.862 2.5 13.6886 2.84241 14.2981 3.4519C14.9076 4.0614 15.25 4.88805 15.25 5.75C15.25 6.61195 14.9076 7.4386 14.2981 8.0481C13.6886 8.65759 12.862 9 12 9C11.138 9 10.3114 8.65759 9.7019 8.0481C9.09241 7.4386 8.75 6.61195 8.75 5.75ZM4.75 5.75C4.35218 5.75 3.97064 5.90804 3.68934 6.18934C3.40804 6.47064 3.25 6.85218 3.25 7.25C3.25 7.64782 3.40804 8.02936 3.68934 8.31066C3.97064 8.59196 4.35218 8.75 4.75 8.75C5.14782 8.75 5.52936 8.59196 5.81066 8.31066C6.09196 8.02936 6.25 7.64782 6.25 7.25C6.25 6.85218 6.09196 6.47064 5.81066 6.18934C5.52936 5.90804 5.14782 5.75 4.75 5.75ZM2 7.25C2 6.52065 2.28973 5.82118 2.80546 5.30546C3.32118 4.78973 4.02065 4.5 4.75 4.5C5.47935 4.5 6.17882 4.78973 6.69454 5.30546C7.21027 5.82118 7.5 6.52065 7.5 7.25C7.5 7.97935 7.21027 8.67882 6.69454 9.19454C6.17882 9.71027 5.47935 10 4.75 10C4.02065 10 3.32118 9.71027 2.80546 9.19454C2.28973 8.67882 2 7.97935 2 7.25ZM17.75 7.25C17.75 6.85218 17.908 6.47064 18.1893 6.18934C18.4706 5.90804 18.8522 5.75 19.25 5.75C19.6478 5.75 20.0294 5.90804 20.3107 6.18934C20.592 6.47064 20.75 6.85218 20.75 7.25C20.75 7.64782 20.592 8.02936 20.3107 8.31066C20.0294 8.59196 19.6478 8.75 19.25 8.75C18.8522 8.75 18.4706 8.59196 18.1893 8.31066C17.908 8.02936 17.75 7.64782 17.75 7.25ZM19.25 4.5C18.5207 4.5 17.8212 4.78973 17.3055 5.30546C16.7897 5.82118 16.5 6.52065 16.5 7.25C16.5 7.97935 16.7897 8.67882 17.3055 9.19454C17.8212 9.71027 18.5207 10 19.25 10C19.9793 10 20.6788 9.71027 21.1945 9.19454C21.7103 8.67882 22 7.97935 22 7.25C22 6.52065 21.7103 5.82118 21.1945 5.30546C20.6788 4.78973 19.9793 4.5 19.25 4.5ZM7.5 12.125C7.5 11.694 7.67121 11.2807 7.97595 10.976C8.2807 10.6712 8.69402 10.5 9.125 10.5H14.875C15.306 10.5 15.7193 10.6712 16.024 10.976C16.3288 11.2807 16.5 11.694 16.5 12.125V16C16.5 17.1935 16.0259 18.3381 15.182 19.182C14.3381 20.0259 13.1935 20.5 12 20.5C10.8065 20.5 9.66193 20.0259 8.81802 19.182C7.97411 18.3381 7.5 17.1935 7.5 16V12.125ZM9.125 11.75C9.02554 11.75 8.93016 11.7895 8.85983 11.8598C8.78951 11.9302 8.75 12.0255 8.75 12.125V16C8.75 16.862 9.09241 17.6886 9.7019 18.2981C10.3114 18.9076 11.138 19.25 12 19.25C12.862 19.25 13.6886 18.9076 14.2981 18.2981C14.9076 17.6886 15.25 16.862 15.25 16V12.125C15.25 12.0255 15.2105 11.9302 15.1402 11.8598C15.0698 11.7895 14.9745 11.75 14.875 11.75H9.125ZM6.576 11.495C6.52567 11.697 6.50033 11.907 6.5 12.125V12.809L3.53 13.605C3.43403 13.6308 3.35221 13.6936 3.30252 13.7797C3.25283 13.8657 3.23934 13.968 3.265 14.064L4.009 16.841C4.21174 17.5981 4.68126 18.2564 5.33104 18.6947C5.98082 19.133 6.76709 19.3216 7.545 19.226C7.8299 19.6194 8.16565 19.9733 8.5435 20.2785C8.46783 20.3035 8.39117 20.3262 8.3135 20.3465C7.74268 20.4996 7.14729 20.5387 6.56135 20.4616C5.97541 20.3846 5.41039 20.1928 4.89854 19.8974C4.3867 19.602 3.93806 19.2086 3.57825 18.7398C3.21844 18.271 2.9545 17.7358 2.8015 17.165L2.057 14.388C2.00181 14.1819 1.98776 13.9669 2.01566 13.7553C2.04356 13.5437 2.11285 13.3397 2.2196 13.1549C2.32634 12.9701 2.46843 12.8082 2.63777 12.6783C2.8071 12.5484 3.00036 12.4532 3.2065 12.398L6.576 11.495ZM15.456 20.2785C15.532 20.3035 15.6088 20.3262 15.6865 20.3465C16.2573 20.4995 16.8527 20.5385 17.4386 20.4614C18.0245 20.3843 18.5895 20.1925 19.1013 19.897C19.6131 19.6015 20.0617 19.2081 20.4214 18.7393C20.7812 18.2704 21.0451 17.7353 21.198 17.1645L21.942 14.3875C22.0535 13.9712 21.9951 13.5278 21.7796 13.1546C21.5641 12.7814 21.2092 12.5091 20.793 12.3975L17.424 11.4945C17.4743 11.6968 17.4997 11.9068 17.5 12.1245V12.8095L20.4695 13.6045C20.5171 13.6173 20.5618 13.6393 20.6009 13.6693C20.64 13.6994 20.6728 13.7368 20.6974 13.7795C20.722 13.8223 20.738 13.8694 20.7443 13.9183C20.7507 13.9672 20.7474 14.0169 20.7345 14.0645L19.9905 16.841C19.7878 17.598 19.3183 18.2562 18.6687 18.6945C18.019 19.1328 17.2328 19.3215 16.455 19.226C16.1701 19.6194 15.8338 19.9733 15.456 20.2785Z" fill="#096157"/>
</g>
</svg>
