<svg width="40" height="1914" viewBox="0 0 40 1914" fill="none" xmlns="http://www.w3.org/2000/svg">
<g clip-path="url(#clip0_123_6192)">
<path d="M36.6667 19.9999C36.6667 10.7999 29.2001 3.33325 20.0001 3.33325C10.8001 3.33325 3.33342 10.7999 3.33342 19.9999C3.33342 29.1999 10.8001 36.6666 20.0001 36.6666C29.2001 36.6666 36.6667 29.1999 36.6667 19.9999ZM6.66675 19.9999C6.66675 12.6333 12.6334 6.66659 20.0001 6.66659C27.3667 6.66659 33.3334 12.6333 33.3334 19.9999C33.3334 27.3666 27.3667 33.3333 20.0001 33.3333C12.6334 33.3333 6.66675 27.3666 6.66675 19.9999Z" fill="#096157"/>
<path d="M11.6666 20C11.6666 24.6023 15.3975 28.3333 19.9999 28.3333C24.6023 28.3333 28.3333 24.6023 28.3333 20C28.3333 15.3976 24.6023 11.6666 19.9999 11.6666C15.3975 11.6666 11.6666 15.3976 11.6666 20Z" fill="#096157"/>
</g>
<rect width="280" height="4" transform="matrix(0 1 -1 0 22 37)" fill="#959595"/>
<g clip-path="url(#clip1_123_6192)">
<path d="M36.6667 334C36.6667 324.8 29.2001 317.333 20.0001 317.333C10.8001 317.333 3.33342 324.8 3.33342 334C3.33342 343.2 10.8001 350.667 20.0001 350.667C29.2001 350.667 36.6667 343.2 36.6667 334ZM6.66675 334C6.66675 326.633 12.6334 320.667 20.0001 320.667C27.3667 320.667 33.3334 326.633 33.3334 334C33.3334 341.367 27.3667 347.333 20.0001 347.333C12.6334 347.333 6.66675 341.367 6.66675 334Z" fill="#096157"/>
<path d="M11.6666 334C11.6666 338.602 15.3975 342.333 19.9999 342.333C24.6023 342.333 28.3333 338.602 28.3333 334C28.3333 329.398 24.6023 325.667 19.9999 325.667C15.3975 325.667 11.6666 329.398 11.6666 334Z" fill="#096157"/>
</g>
<rect width="280" height="4" transform="matrix(0 1 -1 0 22 351)" fill="#959595"/>
<g clip-path="url(#clip2_123_6192)">
<path d="M36.6667 648C36.6667 638.8 29.2001 631.333 20.0001 631.333C10.8001 631.333 3.33342 638.8 3.33342 648C3.33342 657.2 10.8001 664.667 20.0001 664.667C29.2001 664.667 36.6667 657.2 36.6667 648ZM6.66675 648C6.66675 640.633 12.6334 634.667 20.0001 634.667C27.3667 634.667 33.3334 640.633 33.3334 648C33.3334 655.367 27.3667 661.333 20.0001 661.333C12.6334 661.333 6.66675 655.367 6.66675 648Z" fill="#096157"/>
<path d="M11.6666 648C11.6666 652.602 15.3975 656.333 19.9999 656.333C24.6023 656.333 28.3333 652.602 28.3333 648C28.3333 643.398 24.6023 639.667 19.9999 639.667C15.3975 639.667 11.6666 643.398 11.6666 648Z" fill="#096157"/>
</g>
<rect width="280" height="4" transform="matrix(0 1 -1 0 22 665)" fill="#959595"/>
<g clip-path="url(#clip3_123_6192)">
<path d="M36.6667 962C36.6667 952.8 29.2001 945.333 20.0001 945.333C10.8001 945.333 3.33342 952.8 3.33342 962C3.33342 971.2 10.8001 978.667 20.0001 978.667C29.2001 978.667 36.6667 971.2 36.6667 962ZM6.66675 962C6.66675 954.633 12.6334 948.667 20.0001 948.667C27.3667 948.667 33.3334 954.633 33.3334 962C33.3334 969.367 27.3667 975.333 20.0001 975.333C12.6334 975.333 6.66675 969.367 6.66675 962Z" fill="#096157"/>
<path d="M11.6666 962C11.6666 966.602 15.3975 970.333 19.9999 970.333C24.6023 970.333 28.3333 966.602 28.3333 962C28.3333 957.398 24.6023 953.667 19.9999 953.667C15.3975 953.667 11.6666 957.398 11.6666 962Z" fill="#096157"/>
</g>
<rect width="280" height="4" transform="matrix(0 1 -1 0 22 979)" fill="#959595"/>
<g clip-path="url(#clip4_123_6192)">
<path d="M36.6667 1276C36.6667 1266.8 29.2001 1259.33 20.0001 1259.33C10.8001 1259.33 3.33342 1266.8 3.33342 1276C3.33342 1285.2 10.8001 1292.67 20.0001 1292.67C29.2001 1292.67 36.6667 1285.2 36.6667 1276ZM6.66675 1276C6.66675 1268.63 12.6334 1262.67 20.0001 1262.67C27.3667 1262.67 33.3334 1268.63 33.3334 1276C33.3334 1283.37 27.3667 1289.33 20.0001 1289.33C12.6334 1289.33 6.66675 1283.37 6.66675 1276Z" fill="#096157"/>
<path d="M11.6666 1276C11.6666 1280.6 15.3975 1284.33 19.9999 1284.33C24.6023 1284.33 28.3333 1280.6 28.3333 1276C28.3333 1271.4 24.6023 1267.67 19.9999 1267.67C15.3975 1267.67 11.6666 1271.4 11.6666 1276Z" fill="#096157"/>
</g>
<rect width="280" height="4" transform="matrix(0 1 -1 0 22 1293)" fill="#959595"/>
<g clip-path="url(#clip5_123_6192)">
<path d="M36.6667 1590C36.6667 1580.8 29.2001 1573.33 20.0001 1573.33C10.8001 1573.33 3.33342 1580.8 3.33342 1590C3.33342 1599.2 10.8001 1606.67 20.0001 1606.67C29.2001 1606.67 36.6667 1599.2 36.6667 1590ZM6.66675 1590C6.66675 1582.63 12.6334 1576.67 20.0001 1576.67C27.3667 1576.67 33.3334 1582.63 33.3334 1590C33.3334 1597.37 27.3667 1603.33 20.0001 1603.33C12.6334 1603.33 6.66675 1597.37 6.66675 1590Z" fill="#096157"/>
<path d="M11.6666 1590C11.6666 1594.6 15.3975 1598.33 19.9999 1598.33C24.6023 1598.33 28.3333 1594.6 28.3333 1590C28.3333 1585.4 24.6023 1581.67 19.9999 1581.67C15.3975 1581.67 11.6666 1585.4 11.6666 1590Z" fill="#096157"/>
</g>
<rect width="270" height="4" transform="matrix(0 1 -1 0 22 1607)" fill="#959595"/>
<g clip-path="url(#clip6_123_6192)">
<path d="M36.6667 1894C36.6667 1884.8 29.2001 1877.33 20.0001 1877.33C10.8001 1877.33 3.33342 1884.8 3.33342 1894C3.33342 1903.2 10.8001 1910.67 20.0001 1910.67C29.2001 1910.67 36.6667 1903.2 36.6667 1894ZM6.66675 1894C6.66675 1886.63 12.6334 1880.67 20.0001 1880.67C27.3667 1880.67 33.3334 1886.63 33.3334 1894C33.3334 1901.37 27.3667 1907.33 20.0001 1907.33C12.6334 1907.33 6.66675 1901.37 6.66675 1894Z" fill="#096157"/>
<path d="M11.6666 1894C11.6666 1898.6 15.3975 1902.33 19.9999 1902.33C24.6023 1902.33 28.3333 1898.6 28.3333 1894C28.3333 1889.4 24.6023 1885.67 19.9999 1885.67C15.3975 1885.67 11.6666 1889.4 11.6666 1894Z" fill="#096157"/>
</g>
<defs>
<clipPath id="clip0_123_6192">
<rect width="40" height="40" fill="white" transform="matrix(0 1 -1 0 40 0)"/>
</clipPath>
<clipPath id="clip1_123_6192">
<rect width="40" height="40" fill="white" transform="matrix(0 1 -1 0 40 314)"/>
</clipPath>
<clipPath id="clip2_123_6192">
<rect width="40" height="40" fill="white" transform="matrix(0 1 -1 0 40 628)"/>
</clipPath>
<clipPath id="clip3_123_6192">
<rect width="40" height="40" fill="white" transform="matrix(0 1 -1 0 40 942)"/>
</clipPath>
<clipPath id="clip4_123_6192">
<rect width="40" height="40" fill="white" transform="matrix(0 1 -1 0 40 1256)"/>
</clipPath>
<clipPath id="clip5_123_6192">
<rect width="40" height="40" fill="white" transform="matrix(0 1 -1 0 40 1570)"/>
</clipPath>
<clipPath id="clip6_123_6192">
<rect width="40" height="40" fill="white" transform="matrix(0 1 -1 0 40 1874)"/>
</clipPath>
</defs>
</svg>
