<svg width="105" height="143" viewBox="0 0 105 143" fill="none" xmlns="http://www.w3.org/2000/svg">
<path d="M102 103.281C104 105.281 104 105.281 104.434 108.09C103.85 112.388 102.313 113.521 99.0625 116.344C98.5369 116.803 98.0113 117.262 97.4697 117.735C92.8482 121.705 88.0599 125.48 83.25 129.219C82.554 129.762 81.858 130.306 81.1409 130.865C74.1591 136.173 68.1194 140.391 59 139.281C54.3762 138.572 49.8037 137.635 45.2207 136.703C34.6726 134.464 34.6726 134.464 24.625 137.094C22.6324 138.754 20.7334 140.355 19 142.281C15.9484 140.909 13.7517 139.322 11.3281 137.023C10.6643 136.398 10.0004 135.773 9.31641 135.129C8.63449 134.478 7.95258 133.827 7.25 133.156C6.20393 132.168 6.20393 132.168 5.13672 131.16C3.4205 129.538 1.70847 127.912 0 126.281C0.850272 121.984 3.12677 119.525 6.0625 116.406C6.55549 115.875 7.04847 115.345 7.5564 114.798C18.2736 103.479 18.2736 103.479 25.1602 103.113C26.4479 103.107 27.7357 103.1 29.0625 103.094C30.3322 103.08 31.602 103.065 32.9102 103.051C36.6188 103.152 40.0048 103.884 43.6013 104.753C48.8398 105.906 54.2124 106.418 59.5352 107.049C64.35 107.679 68.0136 108.275 72 111.281C71.125 118.156 71.125 118.156 70 119.281C68.1483 119.439 66.2909 119.532 64.4336 119.598C63.3089 119.64 62.1842 119.681 61.0254 119.725C59.8414 119.764 58.6574 119.803 57.4375 119.844C56.2496 119.887 55.0618 119.93 53.8379 119.975C50.8921 120.081 47.9461 120.183 45 120.281C46.8837 120.605 48.7679 120.926 50.6523 121.246C51.7016 121.425 52.7508 121.604 53.8318 121.789C62.8157 123.185 68.2975 122.976 75.8828 117.633C76.9115 116.857 77.9402 116.081 79 115.281C80.3929 114.247 81.7861 113.213 83.1797 112.18C86.6336 109.608 90.0637 107.008 93.4788 104.385C96.6636 102.074 98.2425 102.248 102 103.281Z" fill="#096157"/>
<path d="M68.1245 29.8007C71.6665 32.5974 74.02 36.2601 75.9995 40.2812C75.9995 40.9412 75.9995 41.6012 75.9995 42.2812C77.1571 42.2347 78.3146 42.1883 79.5073 42.1405C81.0463 42.103 82.5854 42.0666 84.1245 42.0312C84.885 41.9976 85.6456 41.9641 86.4292 41.9296C91.7992 41.837 94.7153 42.7557 98.9995 46.2812C103.583 51.1805 103.348 57.4288 103.277 63.828C102.137 78.0162 96.4221 88.9611 86.9995 99.2812C85.9995 97.2812 85.9995 97.2812 86.5581 95.5741C86.8481 94.8793 87.1382 94.1845 87.437 93.4687C90.6849 84.042 89.828 75.02 85.601 66.0702C80.4025 57.0171 73.0374 50.9335 63.0581 47.6405C52.5054 45.7983 43.3074 47.4334 34.312 53.0312C27.5017 57.8601 22.004 64.0141 19.9995 72.2812C19.0062 81.2963 19.343 89.9016 22.9995 98.2812C19.0836 96.9759 17.7723 94.5636 15.562 91.2812C15.1624 90.6946 14.7628 90.1081 14.351 89.5038C8.34863 80.51 5.8254 72.7632 5.74948 61.9062C5.71854 60.8117 5.71854 60.8117 5.68698 59.6952C5.64976 54.4838 6.32636 50.8075 8.99948 46.2812C13.7529 42.8042 18.2316 42.9072 23.8745 43.0937C25.0501 43.114 25.0501 43.114 26.2495 43.1347C28.1664 43.1697 30.0831 43.2235 31.9995 43.2812C32.1219 42.5296 32.2444 41.7781 32.3706 41.0038C33.4499 36.3314 35.9349 33.0246 39.5815 29.9452C47.5554 25.0462 59.966 25.5206 68.1245 29.8007Z" fill="#096157"/>
<path d="M60.8125 1.46889C63.4657 3.66724 64.7347 5.04773 66 8.28139C66.305 13.2155 65.722 16.3694 62.625 20.2814C58.8429 23.163 55.7294 23.6322 51 23.5626C47.7562 23.1065 46.1734 21.6465 44 19.2814C41.9603 15.5905 41.4882 12.4615 42 8.28139C43.6191 5.27453 45.0558 3.02328 47.75 0.906385C52.3929 -0.383303 56.4262 -0.383124 60.8125 1.46889Z" fill="#096157"/>
<path d="M91.9993 15.2812C95.074 16.9837 97.4055 19.0935 98.9993 22.2812C99.3465 27.5757 99.5236 31.0278 95.9993 35.2812C92.4656 38.2092 89.3963 38.8137 84.929 38.6367C81.0772 37.9271 78.9502 35.5491 76.6868 32.5312C75.6271 29.063 75.3121 25.8264 75.9993 22.2812C79.8559 15.6146 84.6796 14.1513 91.9993 15.2812Z" fill="#096157"/>
<path d="M27.3125 18.0938C29.9864 20.2702 31.7419 21.8548 32.3711 25.3321C32.495 29.5521 32.3989 32.4084 29.6875 35.7813C25.9655 39.2436 23.0345 39.6312 18 39.5664C14.7957 39.1096 13.1758 37.5851 11 35.2813C8.4752 31.7946 8.56527 28.4838 9.00001 24.2813C10.6282 21.1993 12.0301 19.0171 14.8125 16.9063C19.6006 15.5382 22.9301 15.6959 27.3125 18.0938Z" fill="#096157"/>
<path d="M41 73H44.3333V63H47.6667L53.3667 73H61V63H64.3333V73H67.6667V76.3333H64.3333V79.6667H67.6667V83H64.3333V93H61L55.2833 83H47.6667V93H44.3333V83H41V79.6667H44.3333V76.3333H41V73ZM47.6667 73H49.55L47.6667 69.7167V73ZM47.6667 76.3333V79.6667H53.3667L51.4667 76.3333H47.6667ZM61 86.3333V83H59.0833L61 86.3333ZM55.2667 76.3333L57.1833 79.6667H61V76.3333H55.2667Z" fill="#096157"/>
</svg>
