<svg width="35" height="46" viewBox="0 0 35 46" fill="none" xmlns="http://www.w3.org/2000/svg">
<path d="M33.2451 32.9878C33.8776 33.6203 33.8776 33.6203 34.0148 34.5086C33.8301 35.8679 33.3441 36.2263 32.3161 37.1191C32.1498 37.2642 31.9836 37.4094 31.8123 37.559C30.3506 38.8147 28.8362 40.0086 27.315 41.1911C27.0949 41.3629 26.8747 41.5348 26.6479 41.7119C24.4398 43.3905 22.5296 44.7245 19.6454 44.3736C18.183 44.1492 16.7369 43.853 15.2874 43.5582C11.9513 42.8499 11.9513 42.8499 8.77355 43.6817C8.14334 44.2069 7.54274 44.7132 6.99452 45.3224C6.02938 44.8882 5.33464 44.3863 4.56812 43.6595C4.35816 43.4617 4.1482 43.264 3.93187 43.0603C3.7162 42.8544 3.50053 42.6485 3.27832 42.4364C2.94748 42.1239 2.94748 42.1239 2.60995 41.8051C2.06716 41.292 1.52569 40.7776 0.985352 40.262C1.25427 38.9031 1.97426 38.125 2.90275 37.1388C3.05867 36.9709 3.21459 36.803 3.37523 36.6301C6.76478 33.0504 6.76478 33.0504 8.94281 32.9346C9.35009 32.9326 9.75738 32.9306 10.177 32.9285C10.5786 32.924 10.9802 32.9195 11.3939 32.9149C12.5669 32.9468 13.6378 33.1785 14.7752 33.4533C16.432 33.818 18.1312 33.9798 19.8147 34.1793C21.3374 34.3788 22.4962 34.5671 23.7569 35.5179C23.4802 37.6923 23.4802 37.6923 23.1244 38.0481C22.5387 38.098 21.9513 38.1275 21.3639 38.1482C21.0082 38.1614 20.6525 38.1747 20.286 38.1883C19.9115 38.2008 19.537 38.2132 19.1512 38.226C18.7755 38.2397 18.3998 38.2533 18.0128 38.2674C17.0811 38.3011 16.1494 38.3333 15.2176 38.3644C15.8134 38.4668 16.4093 38.5684 17.0053 38.6695C17.3371 38.7262 17.6689 38.7828 18.0108 38.8412C20.8522 39.2828 22.5859 39.2165 24.985 37.5268C25.3103 37.2813 25.6356 37.0359 25.9708 36.783C26.4114 36.4559 26.852 36.1289 27.2928 35.8021C28.3851 34.9889 29.47 34.1664 30.5501 33.3369C31.5573 32.6059 32.0567 32.6609 33.2451 32.9878Z" fill="white"/>
<path d="M22.5309 9.74975C23.6511 10.6343 24.3955 11.7927 25.0215 13.0644C25.0215 13.2732 25.0215 13.4819 25.0215 13.697C25.3876 13.6823 25.7538 13.6676 26.131 13.6525C26.6177 13.6406 27.1045 13.6291 27.5912 13.6179C27.8318 13.6073 28.0723 13.5967 28.3202 13.5858C30.0185 13.5565 30.9408 13.8471 32.2958 14.9621C33.7454 16.5116 33.671 18.4877 33.6486 20.5116C33.2882 24.999 31.4806 28.4605 28.5005 31.7245C28.1843 31.0919 28.1843 31.0919 28.3609 30.552C28.4527 30.3323 28.5444 30.1126 28.6389 29.8861C29.6661 26.9048 29.3951 24.0514 28.0582 21.2208C26.4141 18.3575 24.0847 16.4335 20.9285 15.392C17.591 14.8093 14.6819 15.3265 11.8369 17.0969C9.68303 18.6241 7.94426 20.5705 7.3103 23.1851C6.99616 26.0364 7.10266 28.758 8.25912 31.4082C7.02064 30.9954 6.60591 30.2324 5.90684 29.1943C5.78046 29.0088 5.65407 28.8233 5.52386 28.6322C3.62546 25.7877 2.82744 23.3376 2.80342 19.9038C2.79364 19.5577 2.79364 19.5577 2.78366 19.2046C2.77188 17.5563 2.98587 16.3936 3.83131 14.9621C5.33469 13.8624 6.75118 13.895 8.53585 13.9539C8.90767 13.9604 8.90767 13.9604 9.287 13.9669C9.89328 13.978 10.4995 13.995 11.1056 14.0132C11.1443 13.7756 11.183 13.5379 11.2229 13.293C11.5643 11.8152 12.3502 10.7694 13.5035 9.79546C16.0255 8.24604 19.9506 8.39607 22.5309 9.74975Z" fill="white"/>
<path d="M20.2191 0.788786C21.0582 1.48407 21.4596 1.92068 21.8597 2.94339C21.9562 4.50393 21.7718 5.5014 20.7923 6.73865C19.5961 7.65003 18.6114 7.79842 17.1157 7.77642C16.0897 7.63215 15.5891 7.1704 14.9018 6.42238C14.2567 5.25506 14.1073 4.26543 14.2692 2.94339C14.7813 1.9924 15.2357 1.2804 16.0878 0.610883C17.5562 0.202991 18.8318 0.203047 20.2191 0.788786Z" fill="white"/>
<path d="M30.0829 5.16018C31.0553 5.69864 31.7927 6.36589 32.2968 7.37408C32.4066 9.04858 32.4626 10.1404 31.348 11.4856C30.2303 12.4117 29.2596 12.6028 27.8467 12.5469C26.6285 12.3225 25.9558 11.5703 25.24 10.6159C24.9048 9.51897 24.8052 8.49532 25.0225 7.37408C26.2423 5.26563 27.7679 4.80283 30.0829 5.16018Z" fill="white"/>
<path d="M9.62265 6.05119C10.4683 6.73953 11.0235 7.24068 11.2225 8.34045C11.2617 9.67514 11.2313 10.5785 10.3738 11.6452C9.19663 12.7403 8.26963 12.8629 6.67736 12.8424C5.66394 12.6979 5.1516 12.2157 4.46346 11.4871C3.66493 10.3844 3.69342 9.33725 3.83092 8.00812C4.34587 7.03339 4.78925 6.3432 5.66925 5.67561C7.18359 5.24295 8.23663 5.2928 9.62265 6.05119Z" fill="white"/>
<path d="M13.9512 23.4088H15.0054V20.2461H16.0597L17.8624 23.4088H20.2766V20.2461H21.3309V23.4088H22.3851V24.4631H21.3309V25.5173H22.3851V26.5715H21.3309V29.7343H20.2766L18.4686 26.5715H16.0597V29.7343H15.0054V26.5715H13.9512V25.5173H15.0054V24.4631H13.9512V23.4088ZM16.0597 23.4088H16.6553L16.0597 22.3704V23.4088ZM16.0597 24.4631V25.5173H17.8624L17.2615 24.4631H16.0597ZM20.2766 27.6258V26.5715H19.6704L20.2766 27.6258ZM18.4633 24.4631L19.0695 25.5173H20.2766V24.4631H18.4633Z" fill="white"/>
</svg>
